HIERARCHY
ROOT reference
{
  OFFSET 0 0 0
  CHANNELS 6 Xposition Yposition Zposition Zrotation Xrotation Yrotation
  JOINT Hips
  {
    OFFSET -33.611 73.9632 189.911
    CHANNELS 6 Xposition Yposition Zposition Zrotation Xrotation Yrotation
    JOINT Spine
    {
      OFFSET 0 7.86299 0
      CHANNELS 6 Xposition Yposition Zposition Zrotation Xrotation Yrotation
      JOINT Spine1
      {
        OFFSET 0 22.6654 0
        CHANNELS 6 Xposition Yposition Zposition Zrotation Xrotation Yrotation
        JOINT Neck
        {
          OFFSET 0 22.5723 2.05203
          CHANNELS 6 Xposition Yposition Zposition Zrotation Xrotation Yrotation
          JOINT Head
          {
            OFFSET 0 13.4246 -1.9178
            CHANNELS 6 Xposition Yposition Zposition Zrotation Xrotation Yrotation
            End Site
            {
              OFFSET 0 23.9725 0
            }
          }
        }
        JOINT LeftShoulder
        {
          OFFSET 3.7941 20.1358 -0.319195
          CHANNELS 6 Xposition Yposition Zposition Zrotation Xrotation Yrotation
          JOINT LeftArm
          {
            OFFSET 12.7665 0 0
            CHANNELS 6 Xposition Yposition Zposition Zrotation Xrotation Yrotation
            JOINT LeftForeArm
            {
              OFFSET 28.396 0 0
              CHANNELS 6 Xposition Yposition Zposition Zrotation Xrotation Yrotation
              JOINT LeftHand
              {
                OFFSET 28.7929 0 0
                CHANNELS 6 Xposition Yposition Zposition Zrotation Xrotation Yrotation
                End Site
                {
                  OFFSET 14.3835 0 0
                }
              }
            }
          }
        }
        JOINT RightShoulder
        {
          OFFSET -3.85764 20.1358 -0.319195
          CHANNELS 6 Xposition Yposition Zposition Zrotation Xrotation Yrotation
          JOINT RightArm
          {
            OFFSET -12.7665 0 0
            CHANNELS 6 Xposition Yposition Zposition Zrotation Xrotation Yrotation
            JOINT RightForeArm
            {
              OFFSET -28.396 0 0
              CHANNELS 6 Xposition Yposition Zposition Zrotation Xrotation Yrotation
              JOINT RightHand
              {
                OFFSET -28.7929 0 0
                CHANNELS 6 Xposition Yposition Zposition Zrotation Xrotation Yrotation
                End Site
                {
                  OFFSET -14.3835 0 0
                }
              }
            }
          }
        }
      }
    }
    JOINT LeftUpLeg
    {
      OFFSET 9.58901 0 0
      CHANNELS 6 Xposition Yposition Zposition Zrotation Xrotation Yrotation
      JOINT LeftLeg
      {
        OFFSET 0 -41.7092 0
        CHANNELS 6 Xposition Yposition Zposition Zrotation Xrotation Yrotation
        JOINT LeftFoot
        {
          OFFSET 0 -41.5308 0
          CHANNELS 6 Xposition Yposition Zposition Zrotation Xrotation Yrotation
          JOINT LeftToeBase
          {
            OFFSET 0 -6.23286 14.3835
            CHANNELS 6 Xposition Yposition Zposition Zrotation Xrotation Yrotation
            End Site
            {
              OFFSET 0 0 3.8356
            }
          }
        }
      }
    }
    JOINT RightUpLeg
    {
      OFFSET -9.58901 0 0
      CHANNELS 6 Xposition Yposition Zposition Zrotation Xrotation Yrotation
      JOINT RightLeg
      {
        OFFSET 0 -41.7092 0
        CHANNELS 6 Xposition Yposition Zposition Zrotation Xrotation Yrotation
        JOINT RightFoot
        {
          OFFSET 0 -41.5308 0
          CHANNELS 6 Xposition Yposition Zposition Zrotation Xrotation Yrotation
          JOINT RightToeBase
          {
            OFFSET 0 -6.23286 14.3835
            CHANNELS 6 Xposition Yposition Zposition Zrotation Xrotation Yrotation
            End Site
            {
              OFFSET 0 0 3.8356
            }
          }
        }
      }
    }
  }
}
MOTION
Frames:	10
Frame Time:	0.004
0 0 0 0 0 -0 -36.9748 65.5951 -115.923 -7.4261 14.7601 15.296 0 7.86299 0 17.4395 38.3807 -0.514224 3.55271e-015 22.6654 0 -13.1869 -8.44205 4.61955 -7.10543e-015 22.5723 2.05203 3.87237 14.0593 22.3323 0 13.4246 -1.9178 -36.8233 -14.8666 13.3135 3.7941 20.1358 -0.319195 -17.174 28.0158 3.73897 12.7665 0 0 -31.3161 14.3771 -17.8637 28.396 -7.10543e-015 0 11.4717 -17.5246 -30.3582 28.7929 0 0 28.5238 -13.186 5.41265 -3.85764 20.1358 -0.319195 -5.60279 8.70363 27.8151 -12.7665 1.42109e-014 0 0.68513 -4.09946 8.3273 -28.396 7.10543e-015 -1.42109e-014 -16.1554 -18.6564 40.5623 -28.7929 -1.42109e-014 -7.10543e-015 -12.4928 -13.9463 10.0901 9.58901 0 0 20.2217 -42.7474 -7.95172 8.88178e-016 -41.7092 0 -101.278 73.6059 73.5255 0 -41.5308 0 6.60283 -32.2702 19.9721 -3.55271e-015 -6.23286 14.3835 8.82781e-032 -3.18055e-015 1.59028e-015 -9.58901 -3.55271e-015 0 -40.1647 -68.0321 -49.2835 -7.10543e-015 -41.7092 0 29.7293 65.9503 -18.2972 0 -41.5308 0 -13.3056 -19.849 -13.5114 -7.10543e-015 -6.23286 14.3835 1.98785e-016 0 -0 
0 0 0 0 0 -0 -36.9748 65.5951 -115.923 -7.65108 15.7719 15.5455 0 7.86299 2.84217e-014 18.1225 38.0592 -0.712195 0 22.6654 0 -13.9927 -9.06098 4.47042 0 22.5723 2.05203 3.89823 14.2489 22.3313 0 13.4246 -1.9178 -37.0168 -15.1169 13.1833 3.7941 20.1358 -0.319195 -17.1345 28.0909 3.57088 12.7665 1.42109e-014 0 -31.2756 14.2677 -17.8334 28.396 7.10543e-015 0 11.6177 -17.5957 -30.3176 28.7929 -7.10543e-015 -2.84217e-014 28.6416 -13.2022 5.47693 -3.85764 20.1358 -0.319195 -5.61126 8.73976 27.8186 -12.7665 0 1.42109e-014 0.595207 -4.16122 8.09178 -28.396 0 0 -16.246 -18.6695 40.4935 -28.7929 1.42109e-014 0 -12.5393 -13.9431 10.107 9.58901 -3.55271e-015 0 20.1112 -44.0268 -8.22114 1.33227e-015 -41.7092 0 -101.306 73.5556 74.4099 0 -41.5308 -1.42109e-014 5.64357 -32.0731 18.6625 0 -6.23286 14.3835 1.76556e-031 -3.18055e-015 3.18055e-015 -9.58901 -3.55271e-015 0 -42.5315 -68.9949 -51.6951 0 -41.7092 1.42109e-014 29.7314 66.2356 -18.7684 7.10543e-015 -41.5308 -1.42109e-014 -13.2553 -19.2996 -13.2121 0 -6.23286 14.3835 -3.97569e-016 -1.59028e-015 7.95139e-016 
0 0 0 0 0 -0 -36.9748 65.5951 -115.923 -7.96485 16.7567 15.7802 0 7.86299 -2.84217e-014 18.829 37.8772 -0.920226 1.77636e-015 22.6654 1.42109e-014 -14.7338 -9.92586 4.30588 3.55271e-015 22.5723 2.05203 3.57052 14.4318 22.4012 0 13.4246 -1.9178 -36.6976 -15.4172 13.2666 3.7941 20.1358 -0.319195 -17.2584 28.224 3.60136 12.7665 0 1.42109e-014 -31.182 13.976 -17.8246 28.396 0 1.42109e-014 11.5062 -17.5978 -30.335 28.7929 0 0 28.9326 -13.2119 5.5005 -3.85764 20.1358 -0.319195 -5.615 8.77972 27.8834 -12.7665 7.10543e-015 0 0.555757 -4.23523 7.89003 -28.396 7.10543e-015 0 -16.3545 -18.5857 40.382 -28.7929 7.10543e-015 0 -12.5039 -13.8554 10.3242 9.58901 0 0 20.1548 -45.2883 -8.50635 3.10862e-015 -41.7092 0 -101.352 73.4483 75.0338 -1.77636e-015 -41.5308 0 4.72822 -31.8484 17.504 0 -6.23286 14.3835 -1.59028e-015 6.36111e-015 1.59028e-015 -9.58901 0 -2.84217e-014 -44.8402 -69.9128 -54.0146 7.10543e-015 -41.7092 7.10543e-015 29.7817 66.4044 -19.4722 -7.10543e-015 -41.5308 0 -12.9493 -18.8946 -12.7528 0 -6.23286 14.3835 -4.41391e-032 -1.59028e-015 -1.59028e-015 
0 0 0 0 0 -0 -36.9748 65.5951 -115.923 -8.24361 17.7909 16.0391 -3.55271e-015 7.86299 0 19.4565 37.3489 -1.03758 3.55271e-015 22.6654 0 -15.5074 -10.2354 4.19765 0 22.5723 2.05203 3.65414 14.261 22.4654 0 13.4246 -1.9178 -36.6832 -15.3088 13.3668 3.7941 20.1358 -0.319195 -17.1475 28.3171 3.43905 12.7665 0 -1.42109e-014 -31.1532 13.804 -17.9642 28.396 0 0 11.6421 -17.6903 -30.2638 28.7929 3.55271e-015 2.84217e-014 28.9419 -13.2725 5.51921 -3.85764 20.1358 -0.319195 -5.63199 8.59757 27.8125 -12.7665 0 -1.42109e-014 0.537833 -4.13269 7.72997 -28.396 7.10543e-015 0 -16.5481 -18.6311 40.1819 -28.7929 0 0 -12.357 -13.8596 10.4118 9.58901 0 0 20.1357 -46.5923 -8.6844 -8.88178e-016 -41.7092 0 -101.46 73.3987 75.8911 -3.55271e-015 -41.5308 1.42109e-014 4.22821 -31.2875 16.344 -3.55271e-015 -6.23286 14.3835 -1.59028e-015 3.18055e-015 -1.59028e-015 -9.58901 7.10543e-015 0 -47.4795 -70.7722 -56.6653 0 -41.7092 0 29.5929 66.5741 -19.8097 0 -41.5308 1.42109e-014 -12.6914 -18.6215 -12.2958 7.10543e-015 -6.23286 14.3835 -1.98785e-016 3.18055e-015 7.95139e-016 
0 0 0 0 0 -0 -36.9748 65.5951 -115.923 -8.53002 18.8605 16.326 3.55271e-015 7.86299 0 20.0137 36.8917 -1.15192 0 22.6654 -1.42109e-014 -16.1956 -10.7751 4.04697 0 22.5723 2.05203 3.59664 14.1986 22.5283 0 13.4246 -1.9178 -36.5892 -15.2616 13.4753 3.7941 20.1358 -0.319195 -17.1836 28.4278 3.36061 12.7665 0 0 -31.0651 13.8393 -17.9843 28.396 -7.10543e-015 1.42109e-014 11.8906 -17.8991 -30.2082 28.7929 1.42109e-014 0 28.9639 -13.3855 5.67473 -3.85764 20.1358 -0.319195 -5.66205 8.48342 27.8488 -12.7665 -7.10543e-015 1.42109e-014 0.402628 -4.46982 7.6722 -28.396 -7.10543e-015 0 -16.1443 -18.3959 40.0145 -28.7929 0 0 -12.6662 -13.8416 10.6163 9.58901 -1.42109e-014 0 20.109 -47.9303 -8.80872 8.88178e-016 -41.7092 0 -101.599 73.3966 76.7241 0 -41.5308 0 3.34328 -31.0164 15.2641 -7.10543e-015 -6.23286 14.3835 -1.59028e-015 3.18055e-015 -4.77083e-015 -9.58901 0 0 -50.4266 -71.5895 -59.6459 -7.10543e-015 -41.7092 0 29.3469 66.7571 -20.1673 0 -41.5308 -1.42109e-014 -12.566 -18.3548 -11.7652 7.10543e-015 -6.23286 14.3835 -3.97569e-016 0 -0 
0 0 0 0 0 -0 -36.9748 65.5951 -115.923 -8.80473 19.9699 16.6172 1.06581e-014 7.86299 0 20.5686 36.2879 -1.24479 -1.77636e-015 22.6654 1.42109e-014 -16.995 -11.1676 3.88718 0 22.5723 2.05203 3.71482 14.1854 22.5586 -1.42109e-014 13.4246 -1.9178 -36.6944 -15.2135 13.49 3.7941 20.1358 -0.319195 -17.0897 28.4074 3.21644 12.7665 0 0 -31.0563 13.6252 -17.9023 28.396 0 2.84217e-014 11.8538 -17.8848 -30.2508 28.7929 3.55271e-015 0 29.135 -13.3548 5.72358 -3.85764 20.1358 -0.319195 -5.53612 8.28597 27.8758 -12.7665 7.10543e-015 0 0.495882 -4.20822 7.3358 -28.396 7.10543e-015 0 -16.4505 -18.5928 40.0954 -28.7929 -1.42109e-014 0 -12.681 -13.9036 10.4573 9.58901 7.10543e-015 0 20.0907 -49.2201 -9.30689 -2.66454e-015 -41.7092 0 -101.217 72.9585 77.1526 -3.55271e-015 -41.5308 1.42109e-014 2.54588 -30.9286 14.1546 7.10543e-015 -6.23286 14.3835 -1.76556e-031 -3.18055e-015 -3.18055e-015 -9.58901 7.10543e-015 0 -53.673 -72.3376 -62.9205 7.10543e-015 -41.7092 0 29.1108 66.9364 -20.3675 -7.10543e-015 -41.5308 0 -12.4047 -18.2606 -11.5146 0 -6.23286 14.3835 1.98785e-016 -1.59028e-015 -0 
0 0 0 0 0 -0 -36.9748 65.5951 -115.923 -9.04498 21.1041 16.9606 0 7.86299 0 20.9726 35.6782 -1.29067 -3.55271e-015 22.6654 -2.84217e-014 -17.6389 -11.5854 3.72347 0 22.5723 2.05203 3.59167 14.0346 22.6119 0 13.4246 -1.9178 -36.342 -15.1396 13.669 3.7941 20.1358 -0.319195 -17.0939 28.481 3.12329 12.7665 7.10543e-015 0 -30.9485 13.5677 -17.9055 28.396 0 2.84217e-014 11.8676 -18.0684 -30.2717 28.7929 -3.55271e-015 0 29.4079 -13.4844 5.87227 -3.85764 20.1358 -0.319195 -5.51105 8.20474 27.8208 -12.7665 0 1.42109e-014 0.489798 -4.36872 7.25908 -28.396 0 0 -16.4597 -18.5329 39.98 -28.7929 0 0 -12.8185 -13.8876 10.6205 9.58901 0 0 19.9529 -50.5891 -9.41002 0 -41.7092 0 -101.193 73.0072 77.8893 -1.77636e-015 -41.5308 1.42109e-014 1.65932 -30.6777 13.0529 3.55271e-015 -6.23286 14.3835 -0 -1.27222e-014 -0 -9.58901 7.10543e-015 0 -57.3064 -72.9706 -66.5653 7.10543e-015 -41.7092 -7.10543e-015 28.8121 67.1125 -20.5635 0 -41.5308 -1.42109e-014 -12.3753 -18.2798 -11.183 0 -6.23286 14.3835 1.98785e-016 0 -0 
0 0 0 0 0 -0 -36.9748 65.5951 -115.923 -9.31691 22.3114 17.329 -3.55271e-015 7.86299 -2.84217e-014 21.315 34.9676 -1.2928 0 22.6654 0 -18.2238 -12 3.56025 -3.55271e-015 22.5723 2.05203 3.77898 14.0209 22.598 0 13.4246 -1.9178 -36.6686 -14.9928 13.6028 3.7941 20.1358 -0.319195 -17.1043 28.5554 3.04756 12.7665 7.10543e-015 0 -30.856 13.671 -17.9124 28.396 -7.10543e-015 -1.42109e-014 12.0242 -18.2573 -30.1923 28.7929 0 0 29.6254 -13.5953 6.01864 -3.85764 20.1358 -0.319195 -5.49314 8.08565 27.8037 -12.7665 0 0 0.48735 -4.40312 7.16559 -28.396 -7.10543e-015 -1.42109e-014 -16.3647 -18.5937 39.9148 -28.7929 7.10543e-015 7.10543e-015 -13.2458 -14.0149 10.4561 9.58901 7.10543e-015 0 19.8281 -52.0405 -9.4228 3.55271e-015 -41.7092 -1.42109e-014 -101.189 73.2114 78.4276 -1.77636e-015 -41.5308 0 1.07925 -30.2955 11.6818 -7.10543e-015 -6.23286 14.3835 -0 0 3.18055e-015 -9.58901 -7.10543e-015 0 -61.3521 -73.5473 -70.6753 -7.10543e-015 -41.7092 7.10543e-015 28.3016 67.3069 -20.4383 0 -41.5308 -1.42109e-014 -12.1499 -18.4371 -11.0036 7.10543e-015 -6.23286 14.3835 -3.97569e-016 -1.59028e-015 -1.59028e-015 
0 0 0 0 0 -0 -36.9748 65.5951 -115.923 -9.5551 23.5417 17.6621 0 7.86299 0 21.6062 34.1168 -1.24518 -5.32907e-015 22.6654 -1.42109e-014 -18.8632 -12.1977 3.42291 3.55271e-015 22.5723 2.05203 3.77037 13.9109 22.5776 0 13.4246 -1.9178 -36.5393 -14.9636 13.6233 3.7941 20.1358 -0.319195 -17.0169 28.5777 2.874 12.7665 -1.42109e-014 0 -30.8035 13.6187 -17.9022 28.396 0 -2.84217e-014 12.0182 -18.4463 -30.2028 28.7929 -7.10543e-015 -2.84217e-014 29.9736 -13.7249 6.19244 -3.85764 20.1358 -0.319195 -5.4409 7.85822 27.778 -12.7665 7.10543e-015 0 0.519898 -4.41591 7.10207 -28.396 7.10543e-015 1.42109e-014 -16.4442 -18.5523 39.6991 -28.7929 -7.10543e-015 -7.10543e-015 -13.0413 -13.9831 10.6643 9.58901 7.10543e-015 0 19.7301 -53.4672 -9.36855 -8.88178e-016 -41.7092 1.42109e-014 -101.275 73.1842 79.4069 -1.77636e-015 -41.5308 0 0.452056 -30.0153 10.8532 0 -6.23286 14.3835 1.59028e-015 -9.54166e-015 -6.36111e-015 -9.58901 -7.10543e-015 0 -65.6741 -74.061 -75.0196 7.10543e-015 -41.7092 -7.10543e-015 27.7718 67.5216 -19.9676 -7.10543e-015 -41.5308 0 -12.2349 -18.5314 -10.9298 -7.10543e-015 -6.23286 14.3835 1.98785e-016 1.59028e-015 -1.59028e-015 
0 0 0 0 0 -0 -36.9748 65.5951 -115.923 -9.84342 24.9112 17.9537 0 7.86299 0 21.6913 33.1941 -1.06294 -1.77636e-015 22.6654 0 -19.3448 -12.5214 3.33112 7.10543e-015 22.5723 2.05203 3.76118 13.8174 22.5893 0 13.4246 -1.9178 -36.5001 -14.8878 13.6679 3.7941 20.1358 -0.319195 -17.0755 28.609 2.84521 12.7665 0 0 -30.7082 13.5744 -17.8814 28.396 7.10543e-015 0 12.0743 -18.5151 -30.1968 28.7929 0 0 29.9899 -13.7624 6.26072 -3.85764 20.1358 -0.319195 -5.43289 7.76943 27.7682 -12.7665 -7.10543e-015 -1.42109e-014 0.495893 -4.61993 7.07461 -28.396 0 1.42109e-014 -16.1655 -18.5548 39.6356 -28.7929 0 -7.10543e-015 -13.396 -14.1189 10.5848 9.58901 1.42109e-014 0 19.7951 -54.9714 -9.08558 4.44089e-015 -41.7092 0 -101.229 73.2445 80.1126 -1.77636e-015 -41.5308 0 -0.233246 -29.7889 9.97062 0 -6.23286 14.3835 -5.29669e-031 -6.36111e-015 -4.77083e-015 -9.58901 0 0 -70.6195 -74.5955 -80.0799 0 -41.7092 0 27.0116 67.7151 -19.5459 0 -41.5308 0 -12.239 -18.7115 -10.7222 -1.42109e-014 -6.23286 14.3835 -1.98785e-016 -1.59028e-015 -7.95139e-016 
